<svg version="1.1" xmlns="http://www.w3.org/2000/svg" viewBox="-258.0479995727539 -3365.376165771484 5133.31259765625 3683.8401428222655"><desc>Created with Snap</desc><defs></defs><g><rect x="-258.0479995727539" y="-3365.376165771484" width="5133.31259765625" height="3683.8401428222655" fill="#faff7f" style=""></rect><g transform="matrix(21.2716,0,0,21.2716,1245.0265,-3164.5343)"><g><path d="M78.4,66.5c-5.5,4.8-9.9,15.2-9.9,15.2s-6.9-11.4-12.9-15.3c-9.5-6.1-13.6-6.2-13.6-6.2V65c0,0,7.8,1.2,11.7,4.6   c8.2,7.1,14.8,18.5,14.8,18.5S74.4,75,80.1,70.5C88.1,64.3,95,65,95,65v-4.8C95,60.1,85.1,60.7,78.4,66.5z" fill="#292929" style=""></path><path d="M42,80c-6.4-3.6-17.8-4.3-17.8-4.3s8.7-10.1,10.5-17C37.5,47.9,36.2,44,36.2,44l-4.6,1.6c0,0,1.3,7.7-0.6,12.4   c-4.1,9.9-13,19.8-13,19.8s14.6,1.3,20.7,5.1c8.6,5.4,10.2,12,10.2,12l4.6-1.6C53.5,93.4,49.7,84.4,42,80z" fill="#292929" style=""></path><path d="M35.3,36.8c11.3-0.9,14.6-3.4,14.6-3.4l-3-3.8c0,0-6.9,3.7-12.1,3.4c-10.9-0.6-23.3-5.6-23.3-5.6s3.5,14,1.8,20.9   C10.9,58.2,5,61.8,5,61.8l3,3.8c0,0,7.5-6.5,9.1-15.1c1.3-7.1-1.7-18-1.7-18S28,37.4,35.3,36.8z" fill="#292929" style=""></path><path d="M37.4,17.8c7.3-1.1,16.7-7.4,16.7-7.4s-0.6,13.2,2.4,19.8c4.6,10.2,8,12.5,8,12.5l2.7-4c0,0-5.9-5.2-7.3-10.2   C56.9,18.2,57.7,5,57.7,5s-12.3,7.8-19.5,8.5c-10.2,1-15.6-3.3-15.6-3.3l-2.7,4.1C19.9,14.2,28.6,19.1,37.4,17.8z" fill="#292929" style=""></path><path d="M65,60.5c0,0,3.1-7.2,7.4-10.1c9-6.1,21.9-9.7,21.9-9.7s-11.5-8.9-14.5-15.4c-4.2-9.1-1.9-15.6-1.9-15.6l-4.8-1.2   c0,0-1.9,9.6,2.2,17.4c3.4,6.4,12.5,13.2,12.5,13.2S75,42.9,69.6,47.8c-8.3,7.6-9.4,11.5-9.4,11.5L65,60.5z" fill="#292929" style=""></path></g><desc>Created with Snap</desc><defs></defs></g><g><g transform="matrix(1.024,0,0,-1.024,0,0)"><path d="M131 59L131 681L53 693L53 743L186 743Q222 743 257 746Q311 750 359 750Q504 749 564 696Q624 643 624 536Q624 456 587 397Q550 338 484 307Q419 276 334 276Q305 276 275 277Q245 279 238 280L238 60L375 49L375 0L48 0L48 49L131 59ZM238 335Q266 330 334 330Q413 330 462 378Q512 426 512 535Q512 621 469 658Q426 696 335 696Q303 696 267 692Q245 690 238 690L238 335ZM696 0L696 49L771 55L771 478L699 496L699 550L837 568L839 568L861 550L861 532L858 454L861 454Q871 471 897 498Q923 525 964 547Q1005 570 1053 570Q1073 570 1086 565L1086 453Q1079 458 1063 462Q1048 467 1029 467Q946 467 875 416L875 56L1002 48L1002 0L696 0ZM1152 279Q1152 369 1189 435Q1226 501 1286 535Q1347 570 1416 570Q1542 570 1605 490Q1669 410 1669 280Q1669 189 1632 123Q1595 57 1534 23Q1474 -11 1405 -11Q1279 -11 1215 69Q1152 149 1152 279ZM1411 46Q1480 46 1517 103Q1554 160 1554 272Q1554 383 1520 448Q1486 513 1411 513Q1342 513 1304 456Q1267 399 1267 287Q1267 176 1302 111Q1337 46 1411 46ZM2005 -11Q1953 -11 1912 -2Q1871 7 1822 22Q1792 33 1777 34L1785 215L1849 215L1866 85Q1883 69 1921 56Q1960 44 2006 44Q2082 44 2121 78Q2161 112 2161 172Q2161 211 2139 239Q2118 267 2082 287Q2047 307 1985 334Q1929 359 1887 385Q1846 411 1815 454Q1785 498 1785 559Q1785 614 1814 657Q1844 701 1899 726Q1955 751 2029 751Q2075 751 2110 744Q2146 737 2191 725Q2211 718 2225 716L2219 548L2158 548L2138 671Q2128 681 2096 690Q2065 699 2028 699Q1959 699 1923 670Q1888 641 1888 586Q1888 546 1909 519Q1931 492 1963 473Q1995 454 2065 421Q2130 390 2171 365Q2212 340 2241 299Q2271 259 2271 203Q2271 150 2241 101Q2212 52 2151 20Q2091 -11 2005 -11ZM2525 -10Q2468 -10 2440 16Q2412 42 2412 105L2412 489L2340 489L2340 534Q2345 535 2368 541Q2391 547 2399 552Q2415 561 2424 588Q2432 607 2443 649Q2454 691 2456 699L2515 699L2517 555L2684 555L2684 489L2517 489L2517 182Q2517 125 2520 102Q2524 79 2535 72Q2547 65 2575 65Q2602 65 2634 72Q2667 79 2685 87L2700 42Q2676 24 2622 7Q2569 -10 2525 -10ZM2761 279Q2761 369 2798 435Q2835 501 2895 535Q2956 570 3025 570Q3151 570 3214 490Q3278 410 3278 280Q3278 189 3241 123Q3204 57 3143 23Q3083 -11 3014 -11Q2888 -11 2824 69Q2761 149 2761 279ZM3020 46Q3089 46 3126 103Q3163 160 3163 272Q3163 383 3129 448Q3095 513 3020 513Q2951 513 2913 456Q2876 399 2876 287Q2876 176 2911 111Q2946 46 3020 46ZM3357 274Q3357 357 3389 424Q3422 491 3485 530Q3549 570 3638 570Q3681 570 3712 562Q3743 554 3786 540L3782 386L3717 386L3695 488Q3689 516 3619 516Q3549 516 3508 459Q3468 403 3468 299Q3468 181 3513 119Q3559 58 3632 58Q3674 58 3711 71Q3749 84 3776 102L3795 62Q3768 34 3715 11Q3663 -11 3609 -11Q3527 -11 3470 26Q3414 63 3385 127Q3357 192 3357 274ZM3935 58L3935 746L3857 757L3857 800L4016 819L4017 819L4039 804L4039 315L4037 256L4268 495L4193 509L4193 555L4435 555L4435 509L4356 495L4209 352L4399 57L4461 49L4461 0L4218 0L4218 49L4281 58L4140 290L4037 188L4039 137L4039 58L4110 49L4110 0L3872 0L3872 49L3935 58Z" fill="#292929" style=""></path></g></g></g></svg>